inDegrees=yes
name=ik_S41_A08_T01
DataType=double
version=3
OpenSimVersion=4.3-2021-08-27-4bc7ad9
endheader
time	pelvis_tilt	pelvis_list	pelvis_rotation	pelvis_tx	pelvis_ty	pelvis_tz	hip_flexion_r	hip_adduction_r	hip_rotation_r	knee_angle_r	knee_angle_r_beta	ankle_angle_r	subtalar_angle_r	mtp_angle_r	hip_flexion_l	hip_adduction_l	hip_rotation_l	knee_angle_l	knee_angle_l_beta	ankle_angle_l	subtalar_angle_l	mtp_angle_l	lumbar_extension	lumbar_bending	lumbar_rotation	arm_flex_r	arm_add_r	arm_rot_r	elbow_flex_r	pro_sup_r	wrist_flex_r	wrist_dev_r	arm_flex_l	arm_add_l	arm_rot_l	elbow_flex_l	pro_sup_l	wrist_flex_l	wrist_dev_l
17.39999999999972	-8.135583617346789	-3.952003499850382	40.66168452484795	0	0.9399999999999999	0	44.9438823558245	-10.09263217168489	-10.18304755436292	53.61515090818651	0.9357609123014826	0	0	0	44.9438823558245	-10.09263217168489	-10.18304755436292	53.61515090818651	0.9357609123014826	0	0	0	-8.496968889271164	0.6306791061896345	-0.2937455503523869	26.45857274466777	-4.2863142504005	-0.1317743962164589	13.31235651020225	83.3178685170526	0	0	42.85415897671487	-23.55766023031255	-38.70591710864207	28.71295674996922	60.43056255525777	0	0
17.41999999999972	-8.125920189749269	-3.998760904054106	40.45775721762501	0	0.9399999999999999	0	44.94391064047248	-10.09246932183303	-10.18284102170458	53.61561898170093	0.9357690817254506	0	0	0	44.94391064047248	-10.09246932183303	-10.18284102170458	53.61561898170093	0.9357690817254506	0	0	0	-8.50910855141549	0.556712806264601	-0.1327137359793567	26.5003608355266	-4.194204071967572	-0.1141515565863577	13.24669552824886	83.38753449692496	0	0	41.58825804249682	-22.47404727055	-38.25029863137964	24.09459573877007	60.2674095683178	0	0
17.43999999999972	-8.101481173831312	-4.066478570604857	40.28343445261982	0	0.9399999999999999	0	44.94393629199728	-10.09232165735808	-10.18265370342861	53.61604317483341	0.9357764852922769	0	0	0	44.94393629199728	-10.09232165735808	-10.18265370342861	53.61604317483341	0.9357764852922769	0	0	0	-8.523781245980619	0.4564157779588638	0.02276059353584686	26.54239041926955	-4.090404159959376	-0.1431169430723749	13.15650578791534	83.50693190235614	0	0	40.33244420484808	-21.35511132066115	-37.70744159558922	25.63240338136313	59.51921024571777	0	0
17.45999999999972	-8.103539739329896	-4.128702664219687	39.82202689930449	0	0.9399999999999999	0	44.94396487928871	-10.09215747241379	-10.18244521617873	53.61651638712669	0.9357847444048555	0	0	0	44.94396487928871	-10.09215747241379	-10.18244521617873	53.61651638712669	0.9357847444048555	0	0	0	-8.536053445356838	0.3245314601458202	0.3631892924073211	26.59780316611572	-3.960585425087475	-0.07350446804735171	13.11434443531742	83.57469608172399	0	0	38.91055643353476	-19.90175044901024	-36.50250177719033	17.23622097176164	61.94675859165648	0	0
17.47999999999972	-8.064628231844358	-4.186045142749989	39.62894362518268	0	0.9399999999999999	0	44.94427684289945	-10.09093262805281	-10.18065077205862	53.62325767877545	0.9359024021399633	0	0	0	44.94427684289945	-10.09093262805281	-10.18065077205862	53.62325767877545	0.9359024021399633	0	0	0	-8.532653015809379	0.2314098557896123	0.4878808497035341	26.78787439683725	-3.787826476807569	0.03430791765939542	12.871643425318	83.53333619785703	0	0	37.38640974371138	-18.45083507045416	-35.40415314327745	15.37737512092145	63.53261893566227	0	0
17.49999999999972	-8.01902234093637	-4.238652775678965	39.34592844859777	0	0.9399999999999999	0	44.94429926287042	-10.09080487592134	-10.1804879508229	53.62362882261073	0.9359088798218874	0	0	0	44.94429926287042	-10.09080487592134	-10.1804879508229	53.62362882261073	0.9359088798218874	0	0	0	-8.517565923854038	0.1223474474501901	0.6812203764557268	26.88622300589259	-3.645196731328068	0.01007820064761124	12.68950221608879	83.64926553582299	0	0	35.57131449778623	-17.15871932939562	-34.55777234539273	15.67027823749041	64.04333365911029	0	0
17.51999999999972	-8.023736474231042	-4.276781280273663	39.07063973203547	0	0.9399999999999999	0	44.94465401536777	-10.08942963916149	-10.1784624878907	53.63133137956733	0.9360433148016025	0	0	0	44.94465401536777	-10.08942963916149	-10.1784624878907	53.63133137956733	0.9360433148016025	0	0	0	-8.533500847123282	0.06310685246445311	0.8703402620123196	27.03737138431473	-3.599322736667354	-0.04263585534136145	12.54251027056294	83.8315176366103	0	0	33.9171871756258	-15.73615346095167	-33.40660329101348	14.46680516292786	66.57365665768882	0	0
17.53999999999971	-7.961543293626235	-4.351214069321263	38.74529023617839	0	0.9399999999999999	0	44.94498851719869	-10.08811880366493	-10.17654065117321	53.63853847569121	0.9361691023584721	0	0	0	44.94498851719869	-10.08811880366493	-10.17654065117321	53.63853847569121	0.9361691023584721	0	0	0	-8.51862201239113	-0.06985168636409837	1.066536486562841	27.12254876137592	-3.440151438470165	-0.2024865318323834	12.40585204660831	84.08731979745515	0	0	32.36545790330645	-14.36551422259462	-31.77998604669803	13.44815418313338	68.85921628056273	0	0
17.55999999999971	-7.925590241125434	-4.419169719923482	38.44130713103581	0	0.9399999999999999	0	44.94532794354795	-10.0868004228454	-10.17460007218055	53.64585981838163	0.9362968838940867	0	0	0	44.94532794354795	-10.0868004228454	-10.17460007218055	53.64585981838163	0.9362968838940867	0	0	0	-8.517297802686738	-0.1900011966350638	1.320927093407239	27.21528979529068	-3.319828634280603	-0.4405466892239502	12.35265342786722	84.31586090238831	0	0	30.94345304724339	-12.9447400111334	-29.98097308801051	12.59230887088992	71.4212414191295	0	0
17.57999999999971	-7.90688228119341	-4.449378549444447	38.12885100075334	0	0.9399999999999999	0	44.94567875936909	-10.08545905215891	-10.17261211655344	53.65346105390407	0.9364295504811728	0	0	0	44.94567875936909	-10.08545905215891	-10.17261211655344	53.65346105390407	0.9364295504811728	0	0	0	-8.501383975678424	-0.2788156546069468	1.61043428061035	27.23350331958349	-3.328576842897519	-0.5985475593481014	12.26955783477874	84.47703016778081	0	0	29.51071379675858	-11.51725066145054	-28.05098949504704	12.3237518875949	73.84445109174312	0	0
17.59999999999971	-7.859140565625156	-4.507451551333455	37.83271394664065	0	0.9399999999999999	0	44.94604577721589	-10.08407705688802	-10.17055010216761	53.66144347267023	0.9365688699709153	0	0	0	44.94604577721589	-10.08407705688802	-10.17055010216761	53.66144347267023	0.9365688699709153	0	0	0	-8.483127720875332	-0.3988899541478914	1.854436467941446	27.24597319794499	-3.239446446787124	-0.6082769054258765	12.14019762179649	84.54540821227747	0	0	28.13664450609374	-10.31415870895868	-25.94767574621148	13.02763361883923	73.56857804511742	0	0
17.61999999999971	-7.778017780515952	-4.605477308425606	37.58403857869963	0	0.9399999999999999	0	44.9463756310732	-10.08283881245122	-10.16869957932938	53.66859873114764	0.9366937527901773	0	0	0	44.9463756310732	-10.08283881245122	-10.16869957932938	53.66859873114764	0.9366937527901773	0	0	0	-8.465139726011065	-0.5635452236737309	2.05549295724222	27.24485295141831	-3.018715364369958	-0.4780670269717281	12.04794409448816	84.46266312156131	0	0	27.15698304874479	-9.102204351314708	-24.05455182382487	12.89953666899921	74.9826385930688	0	0
17.63999999999971	-7.742451568815286	-4.637889037393915	37.41979812869867	0	0.9399999999999999	0	44.94668195043626	-10.08169451016852	-10.16698515110441	53.67522898954811	0.9368094726295235	0	0	0	44.94668195043626	-10.08169451016852	-10.16698515110441	53.67522898954811	0.9368094726295235	0	0	0	-8.449577280053484	-0.6346207531361953	2.20043196345231	27.21197074330661	-2.944726346088434	-0.1961280386545631	11.97137711346009	84.30859187125903	0	0	26.41079322873501	-7.913312275014954	-22.64186960627746	12.68974429407222	76.31540334395001	0	0
17.65999999999971	-7.711553270256579	-4.660051132118872	37.20480636788216	0	0.9399999999999999	0	44.94670296355856	-10.08158367391325	-10.16683911298381	53.67558353702297	0.9368156606503145	0	0	0	44.94670296355856	-10.08158367391325	-10.16683911298381	53.67558353702297	0.9368156606503145	0	0	0	-8.425323235868504	-0.7104189824337347	2.396821577966908	27.18089356488909	-2.887828201037884	0.1088345211413108	11.87836215195593	84.17264420654774	0	0	26.46650949363961	-7.590212234663526	-22.51430147630248	11.85948260780142	78.89484834701504	0	0
